HIERARCHY
ROOT Hips
{
	OFFSET 0 0 0
	CHANNELS 6 Xposition Yposition Zposition Zrotation Yrotation Xrotation
	JOINT LeftThigh
	{
		OFFSET 8.209213 0 -5.776854
		CHANNELS 3 Zrotation Yrotation Xrotation
		JOINT LeftLeg
		{
			OFFSET 0 0 -41.350112
			CHANNELS 3 Zrotation Yrotation Xrotation
			JOINT LeftFoot
			{
				OFFSET 0 0 -38.420225
				CHANNELS 3 Zrotation Yrotation Xrotation
				End Site
				{
					OFFSET 0 -13.011281 -4.889596
				}
			}
		}
	}
	JOINT RightThigh
	{
		OFFSET -8.209213 0 -5.776854
		CHANNELS 3 Zrotation Yrotation Xrotation
		JOINT RightLeg
		{
			OFFSET 0 0 -41.350112
			CHANNELS 3 Zrotation Yrotation Xrotation
			JOINT RightFoot
			{
				OFFSET 0 0 -38.420225
				CHANNELS 3 Zrotation Yrotation Xrotation
				End Site
				{
					OFFSET 0 -13.011281 -4.889596
				}
			}
		}
	}
	JOINT SpineLow
	{
		OFFSET 0 0 4.606742
		CHANNELS 3 Zrotation Yrotation Xrotation
		JOINT SpineMid
		{
			OFFSET 0 0 12.592067
			CHANNELS 3 Zrotation Yrotation Xrotation
			JOINT Chest
			{
				OFFSET 0 0 12.592067
				CHANNELS 3 Zrotation Yrotation Xrotation
				JOINT LeftShoulder
				{
					OFFSET 7.370787 1.382022 9.213483
					CHANNELS 3 Zrotation Yrotation Xrotation
					JOINT LeftArm
					{
						OFFSET 8.937079 0 4.146067
						CHANNELS 3 Zrotation Yrotation Xrotation
						JOINT LeftForearm
						{
							OFFSET 0 0 25.158337
							CHANNELS 3 Zrotation Yrotation Xrotation
							JOINT LeftHand
							{
								OFFSET 0 0 24.597236
								CHANNELS 3 Zrotation Yrotation Xrotation
							}
						}
					}
				}
				JOINT RightShoulder
				{
					OFFSET -7.370787 1.382022 9.213483
					CHANNELS 3 Zrotation Yrotation Xrotation
					JOINT RightArm
					{
						OFFSET -8.937079 0 4.146067
						CHANNELS 3 Zrotation Yrotation Xrotation
						JOINT RightForearm
						{
							OFFSET 0 0 -25.158337
							CHANNELS 3 Zrotation Yrotation Xrotation
							JOINT RightHand
							{
								OFFSET 0 0 -24.597236
								CHANNELS 3 Zrotation Yrotation Xrotation
							}
						}
					}
				}
				JOINT Neck
				{
					OFFSET 0 0 14.741573
					CHANNELS 3 Zrotation Yrotation Xrotation
					JOINT Head
					{
						OFFSET 0 0 11.05618
						CHANNELS 3 Zrotation Yrotation Xrotation
						End Site
						{
							OFFSET 0 0 7.325843
						}
					}
				}
			}
		}
	}
}
MOTION
Frames: 6
Frame Time: 0.01
138.48436449081 91.0873452355241 -34.470618316591 -11.689611 40.058039 -86.221931 24.759186 -12.112619 -26.307167 -17.94266 5.888052 15.080301 -7.577642 2.542183 2.694911 15.490291 15.243465 -20.030093 -5.247316 -0.010801 2.145232 3.397113 0.13705 1.469935 1.612887 -0.253374 -0.111502 4.409969 -0.684783 -0.321526 4.409969 -0.684783 -0.321526 3.654869 -6.419932 3.022684 65.666026 22.623132 107.314107 33.365821 56.077399 145.493035 65.007233 -2.903709 21.627462 11.171036 10.145056 -4.39924 -174.477967 54.779995 156.468996 -46.994704 3.090429 -96.66958 77.930364 -0.808317 21.432715 -21.958563 -7.101866 -1.875921 -16.469745 -5.267163 -1.664209
138.250087414791 91.0166654398198 -34.731244804047 -11.890485 40.319996 -86.275762 24.306557 -12.329646 -27.009065 -17.476212 6.170912 15.708622 -7.687936 2.519878 2.705173 16.523494 15.946231 -19.538732 -7.976595 -0.34572 4.038106 3.62424 0.309376 1.251535 1.569474 -0.306508 -0.063725 4.291014 -0.833269 -0.193997 4.291014 -0.833269 -0.193997 3.206734 -6.139895 2.814515 65.040296 22.986722 107.033601 32.965216 56.176444 145.004125 65.270473 -2.788916 21.785535 11.354414 9.881948 -4.595017 -173.724446 56.189493 156.798335 -48.024549 -0.52661 -97.602301 76.729812 0.735892 22.541941 -22.221213 -7.178892 -2.015297 -16.667919 -5.319351 -1.774714
137.952447008624 90.9311743857172 -35.0549681950372 -12.209026 40.290787 -86.482813 24.059204 -12.634333 -27.795982 -16.655521 6.330396 16.624696 -7.762125 2.488893 2.737151 17.806664 16.223106 -19.167892 -11.289324 0.049906 6.475666 4.360506 0.204597 0.983264 1.588622 -0.373151 -0.006779 4.34276 -1.019019 -0.043028 4.34276 -1.019019 -0.043028 2.948201 -5.693247 2.892641 64.175531 23.548478 106.478128 32.381015 56.007257 144.367663 65.317519 -2.84493 21.705069 11.391309 9.694476 -4.869789 -172.724711 57.786917 157.217415 -48.87345 -4.102891 -98.520182 75.581356 2.121819 23.494653 -22.521247 -7.222654 -2.113171 -16.893702 -5.34786 -1.853386
137.636847800388 90.833293088277 -35.3053368070241 -12.425112 40.561835 -86.66925 23.569274 -13.022101 -28.452829 -16.05156 6.678039 17.294479 -7.88137 2.479449 2.729864 18.697928 16.303401 -18.799708 -14.704 0.917777 9.180418 5.239957 -0.027385 0.671521 1.570721 -0.428433 0.02008 4.293468 -1.171813 0.027043 4.293469 -1.171814 0.027043 2.482816 -5.461487 2.921377 63.440217 23.983122 106.183101 31.578647 56.069988 143.556705 65.644232 -2.745051 21.870127 11.6162 9.38216 -5.049182 -171.862571 59.418944 157.606347 -49.452708 -7.605705 -99.422478 74.741438 3.27799 24.190176 -22.899219 -7.228798 -2.105178 -17.17669 -5.351756 -1.852228
137.262783292768 90.7361330578764 -35.4145823293565 -12.651825 40.60809 -86.863886 23.738498 -13.429319 -29.080433 -15.881511 7.194085 17.722881 -7.926135 2.503299 2.773926 20.678376 16.186122 -17.886806 -18.805708 2.220396 11.57504 6.032282 -0.250571 0.3419 1.550267 -0.485067 0.024003 4.237543 -1.326794 0.034497 4.237543 -1.326794 0.034497 2.338086 -5.221533 3.103063 62.869222 24.377079 105.914644 30.734451 55.971447 142.717033 65.61663 -2.834383 21.819873 12.149228 9.034997 -5.03094 -170.602996 61.053544 158.41997 -49.706247 -10.88436 -100.286956 72.989975 6.273737 25.799706 -23.09624 -7.129368 -1.967097 -17.3229 -5.281741 -1.747268
136.858137736267 90.5959498679399 -35.5728111743125 -12.739582 40.819944 -86.960879 23.625515 -13.725917 -29.791002 -15.64199 7.701218 18.345843 -7.998178 2.545297 2.782719 20.990846 16.047654 -17.310522 -21.146349 3.037845 13.943951 6.432285 -0.350549 0.129083 1.550877 -0.526877 0.01367 4.239487 -1.44036 0.003568 4.239487 -1.44036 0.003568 1.945484 -4.997595 3.297548 62.12854 24.779104 105.605109 29.818093 55.96289 141.800457 65.821438 -2.791374 22.050685 12.533427 8.609192 -4.937097 -169.175432 62.591036 159.538257 -49.6711 -13.735218 -101.084405 72.789658 7.03936 25.726825 -23.535103 -7.040468 -1.86749 -17.650729 -5.217706 -1.674375
